# xmcd
#
# Track frame offsets:
#	150
#	11372
#	24032
#	34595
#	67000
#	97267
#	109977
#	137505
#	154915
#	167082
#	183425
#	196147
#
# Disc length: 2800
#
# Revision: 1
# Processed by: cddbd v1.5.1PL0 Copyright (c) Steve Scherf et al.
# Submitted via: CDex 1.51
# Normalized: r0:DSETVAR1,TDELIM( - )
#
DISCID=960aee0c
DTITLE=Various Artist - Our definition of jazz
DYEAR=2004
DGENRE=Jazz
TTITLE0=Davis Shire - Marlowe's Theme
TTITLE1=Miles Davis - Generique
TTITLE2=Chet Baker - My funny valentine
TTITLE3=Art Blakey and The Jazz Messengers - Wisper not
TTITLE4=Eddie Harris - Exodus
TTITLE5=Dinah Washington - Mad about a boy
TTITLE6=Dexter Gordon - Don't explain
TTITLE7=Ella Fitzgerald - The man I love
TTITLE8=Net King Cole - Autumn leaves
TTITLE9=Nina Simone - My baby just cares for me
TTITLE10=Henri Salvador - Jardin d'Hiver
TTITLE11=Koop - Waltz for Koop
EXTD=YEAR: 2004
EXTT0=
EXTT1=
EXTT2=
EXTT3=
EXTT4=
EXTT5=
EXTT6=
EXTT7=
EXTT8=
EXTT9=
EXTT10=
EXTT11=
PLAYORDER=
